<svg width="43" height="39" viewBox="0 0 43 39" fill="none" xmlns="http://www.w3.org/2000/svg">
<path d="M25.5741 33.1262C26.1871 32.7905 26.6327 32.2347 26.8129 31.5811C26.9931 30.9275 26.8931 30.2296 26.5349 29.6411L25.1842 27.4219C24.826 26.8333 24.2389 26.4022 23.5522 26.2235C22.8654 26.0447 22.1351 26.1329 21.5221 26.4687C16.8991 29.0006 14.1977 24.5622 12.8471 22.343C11.4964 20.1238 8.79511 15.6854 13.4181 13.1535C14.0312 12.8178 14.4768 12.2619 14.657 11.6084C14.8372 10.9548 14.7372 10.2569 14.379 9.66835L13.0283 7.44916C12.6701 6.8606 12.083 6.42952 11.3962 6.25075C10.7094 6.07199 9.9792 6.16019 9.36615 6.49594C3.58738 9.66086 1.47078 13.779 8.22407 24.875C14.9774 35.9709 19.7953 36.2911 25.5741 33.1262Z" stroke="#1F2B6C" stroke-width="2" stroke-linecap="round" stroke-linejoin="round"/>
<path d="M37.8759 23.9621C39.1037 19.4989 38.4196 14.7346 35.9737 10.716C33.5279 6.69743 29.5205 3.75324 24.8319 2.53032M30.7987 22.12C31.1645 20.7945 31.2523 19.4104 31.0571 18.0469C30.8618 16.6835 30.3874 15.3672 29.6608 14.1735C28.9343 12.9798 27.9699 11.9319 26.8227 11.0897C25.6756 10.2476 24.3681 9.62766 22.9751 9.26539M23.7597 20.2645C24.0052 19.3714 23.8682 18.4181 23.3788 17.6141C22.8894 16.81 22.0876 16.2208 21.1495 15.9759" stroke="#159EEC" stroke-width="2" stroke-linecap="round" stroke-linejoin="round"/>
</svg>
